<svg width="45" height="45" viewBox="0 0 45 45" fill="none" xmlns="http://www.w3.org/2000/svg">
<path d="M17.5129 0C16.3556 0 15.2456 0.442499 14.4272 1.23015C13.6088 2.0178 13.149 3.08609 13.149 4.2C13.149 5.31391 13.6088 6.3822 14.4272 7.16985C15.2456 7.9575 16.3556 8.4 17.5129 8.4H27.4876C28.645 8.4 29.755 7.9575 30.5734 7.16985C31.3918 6.3822 31.8515 5.31391 31.8515 4.2C31.8515 3.08609 31.3918 2.0178 30.5734 1.23015C29.755 0.442499 28.645 0 27.4876 0H17.5129ZM2.2118 34.092C0.0722279 25.8552 -0.997556 21.7392 1.24675 18.9696C3.49105 16.2 7.90484 16.2 16.7274 16.2H28.2731C37.0957 16.2 41.5045 16.2 43.7513 18.9696C45.9981 21.7392 44.9283 25.8576 42.7888 34.092C41.4272 39.3312 40.749 41.9496 38.7191 43.476C36.6893 45 33.8839 45 28.2731 45H16.7274C11.1167 45 8.31131 45 6.28146 43.476C4.25162 41.9496 3.57084 39.3312 2.2118 34.092Z" fill="#7A7A7A"/>
<path d="M31.4303 6.00474C31.7105 5.44271 31.8563 4.82745 31.8572 4.20409C31.858 3.58073 31.7139 2.96509 31.4353 2.40234C33.1385 2.41434 34.4676 2.48874 35.6521 2.93514C37.0691 3.4686 38.3014 4.37517 39.2081 5.55114C40.1232 6.73674 40.5547 8.25594 41.1457 10.3487L41.2604 10.7567L42.5396 17.8679C41.5197 17.1911 40.2055 16.7879 38.5049 16.5479L37.6071 11.5391C36.8964 9.04314 36.6396 8.25834 36.2057 7.69674C35.7174 7.0634 35.0537 6.57518 34.2906 6.28794C33.742 6.08154 33.0811 6.02394 31.4303 6.00474ZM13.5682 2.40234C13.2896 2.96509 13.1454 3.58073 13.1463 4.20409C13.1472 4.82745 13.293 5.44271 13.5732 6.00474C11.9224 6.02154 11.2615 6.08154 10.7129 6.28794C9.94977 6.57518 9.28607 7.0634 8.79779 7.69674C8.36389 8.25834 8.10704 9.04314 7.39884 11.5367L6.49862 16.5503C4.79794 16.7903 3.48378 17.1911 2.46387 17.8655L3.74312 10.7567L3.85783 10.3487C4.44883 8.25594 4.88023 6.73674 5.79541 5.54874C6.70276 4.37454 7.93502 3.46968 9.35138 2.93754C10.5359 2.49114 11.865 2.41674 13.5682 2.40474" fill="white"/>
</svg>
