<svg width="38" height="38" viewBox="0 0 38 38" fill="none" xmlns="http://www.w3.org/2000/svg">
<path d="M19.0001 3.1665C16.9208 3.1665 14.8619 3.57605 12.9409 4.37174C11.0199 5.16744 9.27449 6.33372 7.80422 7.80398C4.8349 10.7733 3.16675 14.8006 3.16675 18.9998C3.16675 25.9982 7.71092 31.9357 13.9967 34.0415C14.7884 34.1682 15.0417 33.6773 15.0417 33.2498V30.574C10.6559 31.524 9.72175 28.4523 9.72175 28.4523C8.99341 26.6157 7.96425 26.1248 7.96425 26.1248C6.52342 25.1432 8.07508 25.1748 8.07508 25.1748C9.65841 25.2857 10.4976 26.8057 10.4976 26.8057C11.8751 29.2123 14.2026 28.4998 15.1051 28.1198C15.2476 27.0907 15.6592 26.394 16.1026 25.9982C12.5876 25.6023 8.89841 24.2407 8.89841 18.2082C8.89841 16.4507 9.50008 15.0415 10.5292 13.9173C10.3709 13.5215 9.81675 11.8748 10.6876 9.73734C10.6876 9.73734 12.0176 9.30984 15.0417 11.3523C16.2926 11.004 17.6542 10.8298 19.0001 10.8298C20.3459 10.8298 21.7076 11.004 22.9584 11.3523C25.9826 9.30984 27.3126 9.73734 27.3126 9.73734C28.1834 11.8748 27.6292 13.5215 27.4709 13.9173C28.5001 15.0415 29.1017 16.4507 29.1017 18.2082C29.1017 24.2565 25.3967 25.5865 21.8659 25.9823C22.4359 26.4732 22.9584 27.439 22.9584 28.9115V33.2498C22.9584 33.6773 23.2117 34.184 24.0192 34.0415C30.3051 31.9198 34.8334 25.9982 34.8334 18.9998C34.8334 16.9206 34.4239 14.8617 33.6282 12.9407C32.8325 11.0197 31.6662 9.27424 30.1959 7.80398C28.7257 6.33372 26.9802 5.16744 25.0592 4.37174C23.1382 3.57605 21.0793 3.1665 19.0001 3.1665Z" fill="white"/>
</svg>
