<svg width="45" height="45" viewBox="0 0 45 45" fill="none" xmlns="http://www.w3.org/2000/svg">
<path d="M0 39.8571V16.7143C0 15.9 0.199687 15.1286 0.599062 14.4C0.998437 13.6714 1.54875 13.0714 2.25 12.6L19.125 1.02857C20.1094 0.342857 21.2344 0 22.5 0C23.7656 0 24.8906 0.342857 25.875 1.02857L42.75 12.6C43.4531 13.0714 44.0044 13.6714 44.4037 14.4C44.8031 15.1286 45.0019 15.9 45 16.7143V39.8571C45 41.2714 44.4487 42.4826 43.3462 43.4906C42.2437 44.4986 40.92 45.0017 39.375 45H30.9375C30.1406 45 29.4731 44.7531 28.935 44.2594C28.3969 43.7657 28.1269 43.1554 28.125 42.4286V29.5714C28.125 28.8429 27.855 28.2326 27.315 27.7406C26.775 27.2486 26.1075 27.0017 25.3125 27H19.6875C18.8906 27 18.2231 27.2469 17.685 27.7406C17.1469 28.2343 16.8769 28.8446 16.875 29.5714V42.4286C16.875 43.1571 16.605 43.7683 16.065 44.262C15.525 44.7557 14.8575 45.0017 14.0625 45H5.625C4.07812 45 2.75437 44.4968 1.65375 43.4906C0.553124 42.4843 0.001875 41.2731 0 39.8571Z" fill="white"/>
</svg>
