<svg width="32" height="32" viewBox="0 0 32 32" fill="none" xmlns="http://www.w3.org/2000/svg">
<path d="M9.35008 0.166504H22.6501C27.7167 0.166504 31.8334 4.28317 31.8334 9.34984V22.6498C31.8334 25.0854 30.8659 27.4212 29.1437 29.1434C27.4215 30.8656 25.0857 31.8332 22.6501 31.8332H9.35008C4.28341 31.8332 0.166748 27.7165 0.166748 22.6498V9.34984C0.166748 6.91427 1.13428 4.57845 2.85648 2.85624C4.57869 1.13403 6.91451 0.166504 9.35008 0.166504ZM9.03341 3.33317C7.52168 3.33317 6.07186 3.9337 5.00291 5.00266C3.93395 6.07162 3.33341 7.52144 3.33341 9.03317V22.9665C3.33341 26.1173 5.88258 28.6665 9.03341 28.6665H22.9667C24.4785 28.6665 25.9283 28.066 26.9973 26.997C28.0662 25.9281 28.6667 24.4782 28.6667 22.9665V9.03317C28.6667 5.88234 26.1176 3.33317 22.9667 3.33317H9.03341ZM24.3126 5.70817C24.8375 5.70817 25.3409 5.91669 25.7121 6.28785C26.0832 6.65902 26.2917 7.16243 26.2917 7.68734C26.2917 8.21224 26.0832 8.71565 25.7121 9.08682C25.3409 9.45798 24.8375 9.6665 24.3126 9.6665C23.7877 9.6665 23.2843 9.45798 22.9131 9.08682C22.5419 8.71565 22.3334 8.21224 22.3334 7.68734C22.3334 7.16243 22.5419 6.65902 22.9131 6.28785C23.2843 5.91669 23.7877 5.70817 24.3126 5.70817ZM16.0001 8.08317C18.0997 8.08317 20.1133 8.91724 21.598 10.4019C23.0827 11.8866 23.9167 13.9002 23.9167 15.9998C23.9167 18.0995 23.0827 20.1131 21.598 21.5978C20.1133 23.0824 18.0997 23.9165 16.0001 23.9165C13.9004 23.9165 11.8868 23.0824 10.4022 21.5978C8.91749 20.1131 8.08341 18.0995 8.08341 15.9998C8.08341 13.9002 8.91749 11.8866 10.4022 10.4019C11.8868 8.91724 13.9004 8.08317 16.0001 8.08317ZM16.0001 11.2498C14.7403 11.2498 13.5321 11.7503 12.6413 12.6411C11.7505 13.5319 11.2501 14.7401 11.2501 15.9998C11.2501 17.2596 11.7505 18.4678 12.6413 19.3586C13.5321 20.2494 14.7403 20.7498 16.0001 20.7498C17.2599 20.7498 18.468 20.2494 19.3588 19.3586C20.2496 18.4678 20.7501 17.2596 20.7501 15.9998C20.7501 14.7401 20.2496 13.5319 19.3588 12.6411C18.468 11.7503 17.2599 11.2498 16.0001 11.2498Z" fill="white"/>
</svg>
