<svg width="41" height="47" viewBox="0 0 41 47" fill="none" xmlns="http://www.w3.org/2000/svg">
<path fill-rule="evenodd" clip-rule="evenodd" d="M34.1667 1.21687e-08C35.9096 -0.000111288 37.5868 0.763277 38.8549 2.13397C40.1231 3.50467 40.8864 5.37905 40.9886 7.37362L41 7.83316V44.3879C40.9999 44.8226 40.9051 45.2504 40.7242 45.6324C40.5434 46.0145 40.2822 46.3388 39.9643 46.5758C39.6464 46.8128 39.282 46.9551 38.904 46.9898C38.526 47.0245 38.1464 46.9505 37.7997 46.7744L37.5264 46.6125L31.3194 42.2312L25.1102 46.6125C24.7922 46.8365 24.431 46.9675 24.0584 46.9939C23.6859 47.0203 23.3134 46.9414 22.9737 46.764L22.7231 46.6125L16.5139 42.2312L10.3047 46.6125C9.97924 46.8422 9.60865 46.9742 9.22702 46.9966C8.84539 47.019 8.46498 46.9309 8.12082 46.7405C7.77666 46.5502 7.47981 46.2636 7.25761 45.9072C7.0354 45.5509 6.89498 45.1362 6.84928 44.7013L6.83333 44.3879V28.7216H2.27778C1.71987 28.7215 1.1814 28.4867 0.764486 28.0617C0.347573 27.6368 0.0812192 27.0512 0.0159444 26.416L6.76065e-08 26.1105V6.52764C-0.000222576 4.87035 0.549474 3.27502 1.53759 2.06523C2.52571 0.855435 3.87826 0.121773 5.32089 0.0130556L5.69444 1.21687e-08H34.1667ZM27.3333 23.4995H18.2222C17.6181 23.4995 17.0388 23.7746 16.6116 24.2642C16.1844 24.7539 15.9444 25.418 15.9444 26.1105C15.9444 26.803 16.1844 27.4672 16.6116 27.9568C17.0388 28.4465 17.6181 28.7216 18.2222 28.7216H27.3333C27.9374 28.7216 28.5168 28.4465 28.944 27.9568C29.3711 27.4672 29.6111 26.803 29.6111 26.1105C29.6111 25.418 29.3711 24.7539 28.944 24.2642C28.5168 23.7746 27.9374 23.4995 27.3333 23.4995ZM5.69444 5.22211C5.39239 5.22211 5.10271 5.35966 4.88913 5.60449C4.67555 5.84932 4.55556 6.18139 4.55556 6.52764V23.4995H6.83333V6.52764C6.83333 6.18139 6.71334 5.84932 6.49976 5.60449C6.28618 5.35966 5.9965 5.22211 5.69444 5.22211ZM29.6111 13.0553H18.2222C17.6417 13.056 17.0833 13.3108 16.6611 13.7677C16.239 14.2245 15.9849 14.8489 15.9509 15.5133C15.9169 16.1777 16.1054 16.8318 16.478 17.3422C16.8507 17.8525 17.3792 18.1805 17.9557 18.2591L18.2222 18.2774H29.6111C30.1917 18.2766 30.7501 18.0218 31.1722 17.565C31.5944 17.1081 31.8484 16.4837 31.8824 15.8193C31.9165 15.155 31.7279 14.5008 31.3553 13.9905C30.9827 13.4801 30.4541 13.1522 29.8776 13.0735L29.6111 13.0553Z" fill="white"/>
</svg>
