<svg width="45" height="45" viewBox="0 0 45 45" fill="none" xmlns="http://www.w3.org/2000/svg">
<path d="M32.9971 29.0208H30.9119L30.1728 28.3086C31.8224 26.3934 33.0279 24.1375 33.7032 21.7023C34.3786 19.267 34.507 16.7127 34.0792 14.2221C32.8387 6.88875 26.7151 1.03258 19.3246 0.135693C16.7264 -0.192817 14.0874 0.0770568 11.6096 0.924664C9.13175 1.77227 6.88077 3.17515 5.02889 5.02594C3.17701 6.87673 1.77331 9.12639 0.925206 11.6028C0.077102 14.0791 -0.19293 16.7166 0.135773 19.3133C1.03319 26.6995 6.89279 32.8194 14.2305 34.0593C16.7225 34.4867 19.2783 34.3584 21.715 33.6835C24.1516 33.0086 26.4089 31.8037 28.3252 30.1551L29.0379 30.8938V32.9777L40.2556 44.1888C41.3377 45.2704 43.1062 45.2704 44.1884 44.1888C45.2705 43.1073 45.2705 41.3399 44.1884 40.2584L32.9971 29.0208ZM17.1603 29.0208C10.588 29.0208 5.28272 23.7186 5.28272 17.1502C5.28272 10.5818 10.588 5.27962 17.1603 5.27962C23.7325 5.27962 29.0379 10.5818 29.0379 17.1502C29.0379 23.7186 23.7325 29.0208 17.1603 29.0208Z" fill="white"/>
</svg>
