<svg width="34" height="34" viewBox="0 0 34 34" fill="none" xmlns="http://www.w3.org/2000/svg">
<path d="M31.1666 17.0002C31.1666 9.17591 24.8242 2.8335 16.9999 2.8335C9.17567 2.8335 2.83325 9.17591 2.83325 17.0002C2.83325 24.8244 9.17567 31.1668 16.9999 31.1668" stroke="white" stroke-width="2.125" stroke-linecap="round" stroke-linejoin="round"/>
<path d="M18.4167 2.9043C18.4167 2.9043 22.6667 8.50013 22.6667 17.0001M15.5833 31.096C15.5833 31.096 11.3333 25.5001 11.3333 17.0001C11.3333 8.50013 15.5833 2.9043 15.5833 2.9043M3.72583 21.9585H17M3.72583 12.0418H30.2742" stroke="white" stroke-width="2.125" stroke-linecap="round" stroke-linejoin="round"/>
<path d="M30.9953 25.3827C31.6951 25.8133 31.6512 26.8602 30.9315 26.9424L27.295 27.3547L25.6644 30.63C25.3414 31.2802 24.3426 30.9615 24.1769 30.1568L22.3989 21.4925C22.2587 20.8125 22.8707 20.3847 23.4615 20.7487L30.9953 25.3827Z" stroke="white" stroke-width="2.125"/>
</svg>
