<svg width="25" height="26" viewBox="0 0 25 26" fill="none" xmlns="http://www.w3.org/2000/svg">
<path d="M8.4543 1.64917C5.98242 2.50669 3.85067 4.13428 2.37217 6.29289C0.89368 8.4515 0.146372 11.0273 0.240018 13.6421C0.333663 16.2568 1.26333 18.7726 2.89245 20.8199C4.52158 22.8672 6.7643 24.3381 9.2912 25.0166C11.3398 25.5452 13.4861 25.5684 15.5457 25.0843C17.4115 24.6652 19.1364 23.7687 20.5516 22.4827C22.0246 21.1034 23.0937 19.3487 23.6441 17.4072C24.2423 15.296 24.3488 13.0757 23.9553 10.9169H12.4513V15.689H19.1136C18.9805 16.4501 18.6952 17.1765 18.2747 17.8248C17.8543 18.473 17.3074 19.0298 16.6667 19.4618C15.8532 19.9999 14.9361 20.362 13.9743 20.5248C13.0098 20.7042 12.0204 20.7042 11.0558 20.5248C10.0782 20.3227 9.15338 19.9192 8.34026 19.34C7.03398 18.4153 6.05315 17.1017 5.53772 15.5865C5.01357 14.043 5.01357 12.3696 5.53772 10.8261C5.90461 9.74411 6.51113 8.75901 7.31202 7.94427C8.22853 6.99478 9.38886 6.31608 10.6657 5.98263C11.9426 5.64918 13.2866 5.67388 14.5503 6.054C15.5375 6.35704 16.4403 6.88652 17.1866 7.60023C17.9379 6.85288 18.6878 6.10361 19.4364 5.35239C19.823 4.94844 20.2443 4.56382 20.6251 4.1502C19.4858 3.09002 18.1486 2.26506 16.6899 1.72261C14.0337 0.75813 11.1273 0.732211 8.4543 1.64917Z" fill="white"/>
<path d="M8.45388 1.64931C11.1267 0.731733 14.0331 0.756971 16.6895 1.72083C18.1484 2.26696 19.4851 3.09589 20.6227 4.16001C20.2362 4.57363 19.8284 4.96018 19.4341 5.3622C18.6841 6.11084 17.9349 6.8569 17.1862 7.60038C16.4399 6.88667 15.5371 6.35719 14.5499 6.05414C13.2866 5.67269 11.9426 5.64657 10.6654 5.97865C9.38823 6.31073 8.22718 6.98819 7.30966 7.93668C6.50878 8.75142 5.90226 9.73653 5.53536 10.8185L1.52869 7.71634C2.96283 4.87236 5.44597 2.69693 8.45388 1.64931Z" fill="#E33629"/>
<path d="M0.465613 10.7896C0.680967 9.72227 1.0385 8.68868 1.52865 7.71643L5.53532 10.8263C5.01118 12.3698 5.01118 14.0432 5.53532 15.5868C4.20041 16.6176 2.86485 17.6536 1.52865 18.6947C0.301617 16.2522 -0.0726064 13.4694 0.465613 10.7896Z" fill="#F8BD00"/>
<path d="M12.4509 10.9152H23.9549C24.3484 13.074 24.242 15.2942 23.6437 17.4055C23.0933 19.3469 22.0242 21.1016 20.5513 22.481C19.2582 21.4721 17.9594 20.4709 16.6664 19.462C17.3074 19.0296 17.8546 18.4722 18.275 17.8232C18.6955 17.1743 18.9806 16.4471 19.1133 15.6853H12.4509C12.449 14.0965 12.4509 12.5058 12.4509 10.9152Z" fill="#587DBD"/>
<path d="M1.52686 18.6946C2.86306 17.6638 4.19862 16.6278 5.53353 15.5867C6.04999 17.1024 7.03223 18.4161 8.33994 19.3402C9.1556 19.9167 10.0824 20.3169 11.0613 20.5153C12.0259 20.6947 13.0153 20.6947 13.9798 20.5153C14.9416 20.3525 15.8587 19.9904 16.6722 19.4523C17.9652 20.4612 19.2641 21.4624 20.5571 22.4713C19.1421 23.758 17.4171 24.6551 15.5512 25.0748C13.4916 25.5589 11.3453 25.5357 9.29668 25.0071C7.67642 24.5745 6.16299 23.8119 4.85126 22.767C3.46286 21.6647 2.32888 20.2756 1.52686 18.6946Z" fill="#319F43"/>
</svg>
